<svg id="Filled_stroke_Cut_Ex" height="512" viewBox="0 0 512 512" width="512" xmlns="http://www.w3.org/2000/svg" data-name="Filled stroke Cut Ex"><path d="m24 40h464v400h-464z" fill="#ebf9ff"/><rect fill="#fcfeff" height="88" rx="10" width="88" x="344" y="152"/><rect fill="#fcfeff" height="88" rx="10" width="88" x="344" y="288"/><path d="m24 40h464v64h-464z" fill="#25b1fa"/><path d="m468 472h-424a20 20 0 0 1 -20-20v-28h152l16 16h128l16-16h152v28a20 20 0 0 1 -20 20z" fill="#25b1fa"/><g><path d="m112 344h192l-96-192z" fill="#f15a57"/><circle cx="132" cy="324" fill="#fdc069" r="68"/><g><path d="m488 32h-40v16h32v48h-448v-48h400v-16h-408a8 8 0 0 0 -8 8v360h16v-288h448v288h16v-360a8 8 0 0 0 -8-8z"/><path d="m448 64h16v16h-16z"/><path d="m112 64h16v16h-16z"/><path d="m48 64h16v16h-16z"/><path d="m80 64h16v16h-16z"/><path d="m488 416h-152a8 8 0 0 0 -5.657 2.343l-13.656 13.657h-121.374l-13.656-13.657a8 8 0 0 0 -5.657-2.343h-152a8 8 0 0 0 -8 8v28a28.032 28.032 0 0 0 28 28h28v-16h-28a12.013 12.013 0 0 1 -12-12v-20h140.687l13.656 13.657a8 8 0 0 0 5.657 2.343h128a8 8 0 0 0 5.657-2.343l13.656-13.657h140.687v20a12.013 12.013 0 0 1 -12 12h-380v16h380a28.032 28.032 0 0 0 28-28v-28a8 8 0 0 0 -8-8z"/><path d="m373.657 314.343-11.314 11.314 24 24a8 8 0 0 0 11.314 0l56-56-11.314-11.314-50.343 50.344z"/><path d="m336 366a18.021 18.021 0 0 0 18 18h70v-16h-70a2 2 0 0 1 -2-2v-68a2 2 0 0 1 2-2h54v-16h-54a18.021 18.021 0 0 0 -18 18z"/><path d="m442.343 146.343-50.343 50.344-18.343-18.344-11.314 11.314 24 24a8 8 0 0 0 11.314 0l56-56z"/><path d="m336 162v68a18.021 18.021 0 0 0 18 18h70v-16h-70a2 2 0 0 1 -2-2v-68a2 2 0 0 1 2-2h54v-16h-54a18.021 18.021 0 0 0 -18 18z"/><path d="m202.656 352h101.344a8 8 0 0 0 7.155-11.578l-96-192a8 8 0 0 0 -14.31 0l-50.864 101.727a76 76 0 1 0 52.675 101.851zm5.344-182.111 83.056 166.111h-84a76.055 76.055 0 0 0 -41.916-80.388zm-136 154.111a60 60 0 1 1 60 60 60.068 60.068 0 0 1 -60-60z"/></g></g></svg>