<svg height="512" viewBox="0 0 64 64" width="512" xmlns="http://www.w3.org/2000/svg"><g id="Filled_outline" data-name="Filled outline"><path d="m3 3h34v58h-34z" fill="#e0e0d1"/><rect fill="#cdeef6" height="12" rx="2" width="12" x="49" y="49"/><rect fill="#87cee9" height="12" rx="2" width="12" x="37" y="43"/><path d="m3 3h34v10h-34z" fill="#d6d4a5"/><path d="m59 48h-8a2.966 2.966 0 0 0 -1 .184v-3.184a3 3 0 0 0 -3-3h-8a2.966 2.966 0 0 0 -1 .184v-40.184h-36v60h36v-6.184a2.966 2.966 0 0 0 1 .184h8a2.966 2.966 0 0 0 1-.184v3.184a3 3 0 0 0 3 3h8a3 3 0 0 0 3-3v-8a3 3 0 0 0 -3-3zm-23 12h-32v-46h32zm0-48h-32v-8h32zm12 41a1 1 0 0 1 -1 1h-8a1 1 0 0 1 -1-1v-8a1 1 0 0 1 1-1h8a1 1 0 0 1 1 1zm12 6a1 1 0 0 1 -1 1h-8a1 1 0 0 1 -1-1v-8a1 1 0 0 1 1-1h8a1 1 0 0 1 1 1z"/><path d="m54 52h2v2h-2z"/><path d="m56 56h2v2h-2z"/><path d="m52 56h2v2h-2z"/><path d="m40 46h2v2h-2z"/><path d="m44 50h2v2h-2z"/><path d="m42 48h2v2h-2z"/><path d="m6 17h4v2h-4z"/><path d="m12 17h2v2h-2z"/><path d="m16 17h8v2h-8z"/><path d="m6 22h8v2h-8z"/><path d="m16 22h2v2h-2z"/><path d="m20 22h6v2h-6z"/><path d="m32 17h2v2h-2z"/><path d="m32 22h2v2h-2z"/><path d="m6 27h4v2h-4z"/><path d="m12 27h4v2h-4z"/><path d="m18 27h5v2h-5z"/><path d="m6 7h5v2h-5z"/><path d="m13 7h4v2h-4z"/><path d="m19 7h2v2h-2z"/><path d="m12 56h-4v-6h-2v8h6z"/><path d="m14 56h2v2h-2z"/><path d="m28 40h2v2h-2z"/><path d="m25 44h2v2h-2z"/></g></svg>